<svg width="260" height="420" viewBox="0 0 260 420" fill="none" xmlns="http://www.w3.org/2000/svg">
  <defs>
    <linearGradient id="coat" x1="74" y1="120" x2="187" y2="330" gradientUnits="userSpaceOnUse">
      <stop stop-color="#D6C1A0"/>
      <stop offset="1" stop-color="#9F7A47"/>
    </linearGradient>
    <linearGradient id="kurta" x1="105" y1="118" x2="158" y2="329" gradientUnits="userSpaceOnUse">
      <stop stop-color="#F7F0E3"/>
      <stop offset="1" stop-color="#E7D5B7"/>
    </linearGradient>
    <linearGradient id="pant" x1="101" y1="262" x2="159" y2="411" gradientUnits="userSpaceOnUse">
      <stop stop-color="#765330"/>
      <stop offset="1" stop-color="#4E331B"/>
    </linearGradient>
    <linearGradient id="skin" x1="108" y1="44" x2="156" y2="170" gradientUnits="userSpaceOnUse">
      <stop stop-color="#F1C99A"/>
      <stop offset="1" stop-color="#D9A874"/>
    </linearGradient>
    <filter id="shadow" x="36" y="28" width="192" height="384" filterUnits="userSpaceOnUse" color-interpolation-filters="sRGB">
      <feFlood flood-opacity="0" result="BackgroundImageFix"/>
      <feColorMatrix in="SourceAlpha" type="matrix" values="0 0 0 0 0 0 0 0 0 0 0 0 0 0 0 0 0 0 127 0" result="hardAlpha"/>
      <feOffset dy="14"/>
      <feGaussianBlur stdDeviation="12"/>
      <feColorMatrix type="matrix" values="0 0 0 0 0.28 0 0 0 0 0.18 0 0 0 0 0.07 0 0 0 0.22 0"/>
      <feBlend mode="normal" in2="BackgroundImageFix" result="effect1_dropShadow_1_2"/>
      <feBlend mode="normal" in="SourceGraphic" in2="effect1_dropShadow_1_2" result="shape"/>
    </filter>
  </defs>
  <g filter="url(#shadow)">
    <path d="M117 52C117 42.6112 124.611 35 134 35C143.389 35 151 42.6112 151 52V71H117V52Z" fill="#24150F"/>
    <ellipse cx="133.5" cy="72" rx="34.5" ry="38" fill="url(#skin)"/>
    <path d="M104 77C104.343 60.4796 117.695 47 134.218 47H135.813C149.47 47 160.95 56.1632 164.463 69.3603C162.178 67.9174 159.431 67.0825 156.488 67.0825C150.297 67.0825 144.978 70.7698 142.565 76.0684C138.971 73.301 134.477 71.6581 129.6 71.6581C119.868 71.6581 111.661 78.1965 109.128 87.1145C105.927 84.5214 104 80.5687 104 77Z" fill="#2F1B12"/>
    <path d="M112 88C116.597 102.196 126.657 109.294 142.18 109.294C154.847 109.294 162.787 103.156 166 90.8785V108.558C166 124.891 152.762 138.129 136.429 138.129H133.571C117.238 138.129 104 124.891 104 108.558V88H112Z" fill="url(#skin)"/>
    <path d="M118 96C126.5 101.5 140.5 102 152 95" stroke="#8B5C32" stroke-width="2.6" stroke-linecap="round"/>
    <path d="M131 108C133.667 109.333 136.333 109.333 139 108" stroke="#8B5C32" stroke-width="2.6" stroke-linecap="round"/>
    <path d="M114 145C120.533 139.667 126.867 137 133 137C139.133 137 145.467 139.667 152 145L165 171L158 268H108L101 170L114 145Z" fill="url(#kurta)"/>
    <path d="M99 169C99 160.716 105.716 154 114 154H152C160.284 154 167 160.716 167 169V268H99V169Z" fill="url(#coat)"/>
    <path d="M117 155H149L134 179L117 155Z" fill="#EFDEBE"/>
    <rect x="117" y="181" width="32" height="57" rx="12" fill="#ECE2CF"/>
    <path d="M89 176C92.2792 164.905 103.806 158.562 114.954 161.656C126.101 164.75 132.646 176.109 129.863 187.339L121.33 221.775L95.2873 214.542L89 176Z" fill="url(#coat)"/>
    <path d="M171 177C167.721 165.905 156.194 159.562 145.046 162.656C133.899 165.75 127.354 177.109 130.137 188.339L138.67 222.775L164.713 215.542L171 177Z" fill="url(#coat)"/>
    <path d="M79 212L97 217L94 234C93.3791 237.519 94.5313 241.105 97.0765 243.615L110 256.356L103.482 263L86.0711 249.733C79.4755 244.705 75.9776 236.466 76.8361 228.219L79 212Z" fill="url(#skin)"/>
    <path d="M181 213L163 218L166 235C166.621 238.519 165.469 242.105 162.923 244.615L150 257.356L156.518 264L173.929 250.733C180.525 245.705 184.022 237.466 183.164 229.219L181 213Z" fill="url(#skin)"/>
    <g>
      <rect x="82" y="198" width="95" height="61" rx="14" fill="#2A2A2A"/>
      <rect x="89" y="205" width="81" height="47" rx="10" fill="#111"/>
      <circle cx="129.5" cy="228.5" r="18.5" fill="#4A4A4A"/>
      <circle cx="129.5" cy="228.5" r="13.5" fill="#1E1E1E"/>
      <circle cx="129.5" cy="228.5" r="7.5" fill="#0B0B0B"/>
      <circle cx="135" cy="223" r="3.5" fill="#B8E2FF" fill-opacity=".85"/>
      <rect x="167" y="211" width="16" height="14" rx="5" fill="#2A2A2A"/>
      <rect x="95" y="191" width="30" height="10" rx="5" fill="#383838"/>
    </g>
    <path d="M111 269H157L166 414H144L139 319H128L123 414H101L111 269Z" fill="url(#pant)"/>
    <path d="M109 414H144L139 396H113L109 414Z" fill="#5A381C"/>
    <path d="M155 414H190L180 396H159L155 414Z" fill="#5A381C"/>
    <path d="M102 279L92 414H126L128 319H119L116 279H102Z" fill="url(#pant)"/>
    <path d="M152 279L157 319H146L144 414H178L166 279H152Z" fill="url(#pant)"/>
    <path d="M116 147C123.876 142.099 129.543 139.649 133 139.649C136.457 139.649 142.124 142.099 150 147" stroke="#C79E52" stroke-width="3" stroke-linecap="round"/>
  </g>
</svg>
